<svg width="20" height="20" viewBox="0 0 20 20" fill="none" xmlns="http://www.w3.org/2000/svg">
<path d="M10 12.5C11.3807 12.5 12.5 11.3807 12.5 10C12.5 8.61929 11.3807 7.5 10 7.5C8.61929 7.5 7.5 8.61929 7.5 10C7.5 11.3807 8.61929 12.5 10 12.5Z" stroke="#8A8A8A" stroke-linecap="round" stroke-linejoin="round"/>
<path d="M16.1666 12.5C16.0557 12.7513 16.0226 13.0302 16.0716 13.3005C16.1206 13.5708 16.2495 13.8203 16.4416 14.0167L16.4916 14.0667C16.6465 14.2214 16.7695 14.4053 16.8533 14.6076C16.9372 14.8099 16.9804 15.0268 16.9804 15.2458C16.9804 15.4649 16.9372 15.6817 16.8533 15.8841C16.7695 16.0864 16.6465 16.2702 16.4916 16.425C16.3368 16.58 16.153 16.7029 15.9507 16.7868C15.7483 16.8706 15.5314 16.9138 15.3124 16.9138C15.0934 16.9138 14.8765 16.8706 14.6742 16.7868C14.4719 16.7029 14.288 16.58 14.1332 16.425L14.0833 16.375C13.8869 16.1829 13.6374 16.054 13.3671 16.005C13.0967 15.956 12.8179 15.9891 12.5666 16.1C12.3201 16.2056 12.1099 16.381 11.9618 16.6046C11.8138 16.8282 11.7343 17.0902 11.7333 17.3583V17.5C11.7333 17.942 11.5577 18.3659 11.2451 18.6785C10.9325 18.9911 10.5086 19.1667 10.0666 19.1667C9.62456 19.1667 9.20063 18.9911 8.88807 18.6785C8.57551 18.3659 8.39992 17.942 8.39992 17.5V17.425C8.39347 17.1492 8.30418 16.8817 8.14368 16.6572C7.98317 16.4328 7.75886 16.2619 7.49992 16.1667C7.24857 16.0557 6.96976 16.0226 6.69943 16.0717C6.4291 16.1207 6.17965 16.2495 5.98325 16.4417L5.93325 16.4917C5.77846 16.6466 5.59465 16.7696 5.39232 16.8534C5.18999 16.9373 4.97311 16.9805 4.75408 16.9805C4.53506 16.9805 4.31818 16.9373 4.11585 16.8534C3.91352 16.7696 3.72971 16.6466 3.57492 16.4917C3.41996 16.3369 3.29703 16.1531 3.21315 15.9507C3.12928 15.7484 3.08611 15.5315 3.08611 15.3125C3.08611 15.0935 3.12928 14.8766 3.21315 14.6743C3.29703 14.4719 3.41996 14.2881 3.57492 14.1333L3.62492 14.0833C3.81703 13.8869 3.94591 13.6375 3.99492 13.3672C4.04394 13.0968 4.01085 12.818 3.89992 12.5667C3.79428 12.3202 3.61888 12.11 3.39531 11.9619C3.17173 11.8139 2.90974 11.7344 2.64159 11.7333H2.49992C2.05789 11.7333 1.63397 11.5577 1.32141 11.2452C1.00885 10.9326 0.833252 10.5087 0.833252 10.0667C0.833252 9.62463 1.00885 9.20071 1.32141 8.88815C1.63397 8.57559 2.05789 8.39999 2.49992 8.39999H2.57492C2.85075 8.39354 3.11826 8.30426 3.34267 8.14375C3.56708 7.98325 3.73801 7.75894 3.83325 7.49999C3.94418 7.24865 3.97727 6.96983 3.92826 6.6995C3.87924 6.42917 3.75037 6.17973 3.55825 5.98333L3.50825 5.93333C3.35329 5.77854 3.23036 5.59473 3.14649 5.39239C3.06261 5.19006 3.01944 4.97319 3.01944 4.75416C3.01944 4.53514 3.06261 4.31826 3.14649 4.11593C3.23036 3.9136 3.35329 3.72978 3.50825 3.57499C3.66304 3.42003 3.84685 3.2971 4.04918 3.21323C4.25151 3.12935 4.46839 3.08618 4.68742 3.08618C4.90644 3.08618 5.12332 3.12935 5.32565 3.21323C5.52798 3.2971 5.7118 3.42003 5.86658 3.57499L5.91658 3.62499C6.11298 3.81711 6.36243 3.94598 6.63276 3.995C6.90309 4.04401 7.1819 4.01092 7.43325 3.89999H7.49992C7.74639 3.79436 7.9566 3.61896 8.10466 3.39538C8.25272 3.17181 8.33218 2.90982 8.33325 2.64166V2.49999C8.33325 2.05797 8.50885 1.63404 8.82141 1.32148C9.13397 1.00892 9.55789 0.833328 9.99992 0.833328C10.4419 0.833328 10.8659 1.00892 11.1784 1.32148C11.491 1.63404 11.6666 2.05797 11.6666 2.49999V2.57499C11.6677 2.84315 11.7471 3.10514 11.8952 3.32872C12.0432 3.55229 12.2534 3.72769 12.4999 3.83333C12.7513 3.94426 13.0301 3.97735 13.3004 3.92833C13.5707 3.87932 13.8202 3.75044 14.0166 3.55833L14.0666 3.50833C14.2214 3.35337 14.4052 3.23044 14.6075 3.14656C14.8098 3.06269 15.0267 3.01952 15.2458 3.01952C15.4648 3.01952 15.6817 3.06269 15.884 3.14656C16.0863 3.23044 16.2701 3.35337 16.4249 3.50833C16.5799 3.66312 16.7028 3.84693 16.7867 4.04926C16.8706 4.25159 16.9137 4.46847 16.9137 4.68749C16.9137 4.90652 16.8706 5.1234 16.7867 5.32573C16.7028 5.52806 16.5799 5.71187 16.4249 5.86666L16.3749 5.91666C16.1828 6.11306 16.0539 6.36251 16.0049 6.63284C15.9559 6.90317 15.989 7.18198 16.0999 7.43333V7.49999C16.2056 7.74647 16.381 7.95668 16.6045 8.10474C16.8281 8.2528 17.0901 8.33226 17.3583 8.33333H17.4999C17.9419 8.33333 18.3659 8.50892 18.6784 8.82148C18.991 9.13404 19.1666 9.55797 19.1666 9.99999C19.1666 10.442 18.991 10.8659 18.6784 11.1785C18.3659 11.4911 17.9419 11.6667 17.4999 11.6667H17.4249C17.1568 11.6677 16.8948 11.7472 16.6712 11.8952C16.4476 12.0433 16.2722 12.2535 16.1666 12.5V12.5Z" stroke="#8A8A8A" stroke-linecap="round" stroke-linejoin="round"/>
</svg>
