<svg width="32" height="32" viewBox="0 0 32 32" fill="none" xmlns="http://www.w3.org/2000/svg">
<circle cx="16" cy="16" r="16" fill="#0D28A6"/>
<path d="M25.1666 8.49996C24.3686 9.06285 23.485 9.49338 22.5499 9.77496C22.048 9.19788 21.381 8.78887 20.6391 8.60323C19.8972 8.41759 19.1162 8.46429 18.4017 8.737C17.6871 9.00972 17.0736 9.49529 16.6441 10.1281C16.2145 10.7608 15.9897 11.5102 15.9999 12.275V13.1083C14.5354 13.1463 13.0843 12.8215 11.7758 12.1628C10.4672 11.5042 9.34185 10.5322 8.49992 9.33329C8.49992 9.33329 5.16659 16.8333 12.6666 20.1666C10.9504 21.3316 8.90588 21.9157 6.83325 21.8333C14.3333 26 23.4999 21.8333 23.4999 12.25C23.4991 12.0178 23.4768 11.7863 23.4333 11.5583C24.2838 10.7195 24.8839 9.66055 25.1666 8.49996V8.49996Z" stroke="white" stroke-linecap="round" stroke-linejoin="round"/>
</svg>
